<svg xmlns="http://www.w3.org/2000/svg" fill-rule="evenodd" stroke-linejoin="round" stroke-miterlimit="2" clip-rule="evenodd" viewBox="0 0 24 24" id="question">
  <g>
    <rect width="24" height="24" fill="none"></rect>
    <path d="M127.92,47.975C127.092,47.975 126.42,48.647 126.42,49.475C126.42,50.303 127.092,50.975 127.92,50.975C128.748,50.975 129.42,50.303 129.42,49.475C129.42,48.647 128.748,47.975 127.92,47.975ZM127.92,48.975C128.196,48.975 128.42,49.199 128.42,49.475C128.42,49.751 128.196,49.975 127.92,49.975C127.644,49.975 127.42,49.751 127.42,49.475C127.42,49.199 127.644,48.975 127.92,48.975ZM124.725,37.17C124.725,35.406 126.157,33.975 127.92,33.975C129.683,33.975 131.115,35.406 131.115,37.17C131.115,37.972 130.748,38.42 130.292,38.757C129.793,39.127 129.222,39.41 128.711,39.728C127.289,40.606 126.423,42.159 126.423,43.83C126.42,44.8 126.416,45.97 126.416,45.97C126.414,46.798 127.084,47.472 127.911,47.475C128.739,47.478 129.414,46.808 129.416,45.98L129.423,43.83C129.423,43.198 129.751,42.612 130.288,42.28C130.29,42.279 130.292,42.277 130.294,42.276C132.055,41.178 134.115,40.2 134.115,37.17C134.115,33.751 131.339,30.975 127.92,30.975C124.501,30.975 121.725,33.751 121.725,37.17C121.725,37.997 122.398,38.67 123.225,38.67C124.053,38.67 124.725,37.997 124.725,37.17ZM123.725,37.17C123.725,34.854 125.605,32.975 127.92,32.975C130.235,32.975 132.115,34.854 132.115,37.17C132.115,38.376 131.572,39.053 130.888,39.561C130.367,39.947 129.771,40.245 129.237,40.578C128.11,41.274 127.423,42.505 127.423,43.83C127.42,44.803 127.416,45.973 127.416,45.973C127.415,46.249 127.639,46.474 127.915,46.475C128.191,46.476 128.415,46.252 128.416,45.977L128.423,43.83C128.423,42.851 128.93,41.943 129.763,41.429C129.764,41.428 129.764,41.428 129.765,41.428C130.321,41.08 130.94,40.767 131.483,40.364C132.397,39.687 133.115,38.78 133.115,37.17C133.115,34.303 130.787,31.975 127.92,31.975C125.053,31.975 122.725,34.303 122.725,37.17C122.725,37.446 122.949,37.67 123.225,37.67C123.501,37.67 123.725,37.446 123.725,37.17Z" transform="translate(-115.92 -28.975)"></path>
  </g>
</svg>
